<svg width="18" height="18" viewBox="0 0 18 18" fill="none" xmlns="http://www.w3.org/2000/svg">
<path d="M8.25 6.95625C8.25 10.812 5.331 14.8455 0.75 15.75L0.012 14.1555C1.67325 13.5293 3.13425 11.349 3.297 9.846C1.42875 9.552 0 7.93575 0 5.98425C0 3.59775 1.938 2.25 3.89925 2.25C6.1605 2.25 8.25 3.97875 8.25 6.95625ZM18 6.95625C18 10.812 15.081 14.8455 10.5 15.75L9.762 14.1555C11.4233 13.5293 12.8842 11.349 13.047 9.846C11.1788 9.552 9.75 7.93575 9.75 5.98425C9.75 3.59775 11.688 2.25 13.6493 2.25C15.9105 2.25 18 3.97875 18 6.95625Z" fill="black"/>
</svg>
